<svg xmlns="http://www.w3.org/2000/svg" enable-background="new 0 0 512 512" viewBox="0 0 512 512"><path d="M499.561,247.991c-7.352-7.118-34.979-26.671-81.882,20.589l-84.003,84.646c-5.001,5.038-10.567,8.972-16.788,11.842
	c1.823-4.382,2.83-9.184,2.83-14.218c0-19.745-16.125-36.047-36.71-37.112c-0.36-0.018-0.721-0.012-1.079,0.018
	c-30.094,2.516-61.123-0.134-86.055-2.261c-8.629-0.736-16.778-1.432-23.636-1.787c-27.29-1.418-47.311,14.814-63.324,30.874
	l-31.303,31.395H8c-4.418,0-8,3.582-8,8V479c0,2.122,0.843,4.156,2.343,5.657C3.844,486.157,5.878,487,8,487l286.67-0.002
	c22.778,0,42.099-8.223,57.427-24.441L502.93,302.928C516.273,288.807,514.668,262.622,499.561,247.991z M491.301,291.939
	L340.468,451.567c-12.186,12.894-27.594,19.431-45.798,19.431L16,471v-83.024h64.932c2.126,0,4.164-0.846,5.665-2.352l33.647-33.746
	c14.205-14.244,30.237-27.258,51.166-26.192c6.591,0.342,14.243,0.995,23.104,1.751c25.375,2.165,56.922,4.857,88.168,2.31
	c12.028,0.854,21.036,9.847,21.036,21.103c0,5.658-2.489,11.257-6.474,15.237c-4.292,4.287-9.249,5.287-15.048,5.888l-107.877,0.002
	c-4.418,0-8,3.582-8,8s3.582,8,8,8c0,0,108.256-0.002,108.276-0.001c5.081,0,10.227-1.015,15.282-1.538
	c19.033-1.972,34.457-9.148,47.155-21.941l84.003-84.646c24.681-24.869,46.884-32.481,59.395-20.365
	C497.268,268.044,498.689,284.119,491.301,291.939z M324.084,264.945h45.969c4.418,0,8-3.582,8-8V33c0-4.418-3.582-8-8-8h-45.969
	c-4.418,0-8,3.582-8,8v223.945C316.084,261.363,319.666,264.945,324.084,264.945z M332.084,41h29.969v207.945h-29.969V41z
	 M68.017,264.945h45.969c4.418,0,8-3.582,8-8V165c0-4.418-3.582-8-8-8H68.017c-4.418,0-8,3.582-8,8v91.945
	C60.017,261.363,63.599,264.945,68.017,264.945z M76.017,173h29.969v75.945H76.017V173z M153.373,264.945h45.968
	c4.418,0,8-3.581,8-8V81.064c0-4.418-3.582-8-8-8h-45.968c-4.418,0-8,3.582-8,8v175.881
	C145.373,261.364,148.955,264.945,153.373,264.945z M161.373,89.064h29.968v159.881h-29.968V89.064z M238.729,264.946h45.97
	c4.418,0,8-3.582,8-8V112.415c0-4.418-3.582-8-8-8h-45.97c-4.418,0-8,3.582-8,8v144.532
	C230.729,261.364,234.311,264.946,238.729,264.946z M246.729,120.415h29.97v128.532h-29.97V120.415z"/></svg>