<svg xmlns="http://www.w3.org/2000/svg" data-name="Layer 1" viewBox="0 0 512 512"><path d="M238.674 283.953c-22.227 0-33.857 17.5-33.857 34.785a36.106 36.106 0 0 0 8.393 23.606c6.264 7.292 15.069 11.146 25.464 11.146 22.228 0 33.858-17.5 33.858-34.785a36.11 36.11 0 0 0-8.393-23.606C257.875 287.807 249.069 283.953 238.674 283.953zm0 53.537c-6.632 0-17.857-3.949-17.857-18.752 0-14.828 11.225-18.785 17.857-18.785s17.858 3.949 17.858 18.752C256.532 333.533 245.307 337.49 238.674 337.49zM325.658 110.819a36.106 36.106 0 0 0-8.393-23.606C311 79.921 302.2 76.067 291.8 76.067c-22.228 0-33.858 17.5-33.858 34.785a36.11 36.11 0 0 0 8.393 23.606C272.6 141.75 281.406 145.6 291.8 145.6 314.028 145.6 325.658 128.1 325.658 110.819zM291.8 129.6c-5.668 0-10.152-1.875-13.328-5.572a20.409 20.409 0 0 1-4.53-13.18c0-14.828 11.225-18.785 17.858-18.785s17.857 3.95 17.857 18.752C309.658 125.647 298.434 129.6 291.8 129.6zM430.391 253.609a24.531 24.531 0 0 0-19 8.37 27.606 27.606 0 0 0 0 34.961 25.756 25.756 0 0 0 38-.011 27.606 27.606 0 0 0 0-34.961A24.54 24.54 0 0 0 430.391 253.609zm0 35.691c-8.793 0-9.238-8.193-9.238-9.835s.445-9.856 9.238-9.856 9.238 8.192 9.238 9.834S439.184 289.3 430.391 289.3zM234.8 239.163a34.959 34.959 0 0 0 0-44.163c-5.789-6.738-14.258-10.449-23.848-10.449s-18.055 3.716-23.845 10.463a34.959 34.959 0 0 0 0 44.163c5.789 6.738 14.258 10.449 23.848 10.449S229.011 245.91 234.8 239.163zM199.245 228.75a18.029 18.029 0 0 1-3.992-11.646c0-6.148 3.308-16.553 15.7-16.553 4.992 0 8.932 1.64 11.711 4.875a18.034 18.034 0 0 1 3.992 11.647c0 6.148-3.307 16.553-15.7 16.553C205.964 233.626 202.024 231.986 199.245 228.75zM336.207 255.352a27.606 27.606 0 0 0 0-34.961 25.758 25.758 0 0 0-38 .011 27.6 27.6 0 0 0 0 34.961 25.756 25.756 0 0 0 38-.011zm-19-7.629c-8.793 0-9.239-8.193-9.239-9.835s.446-9.856 9.239-9.856 9.238 8.192 9.238 9.834S326 247.723 317.209 247.723zM344.927 322.9a24.526 24.526 0 0 0-19 8.371 27.6 27.6 0 0 0 0 34.96 25.757 25.757 0 0 0 38-.01 27.6 27.6 0 0 0 0-34.962A24.542 24.542 0 0 0 344.927 322.9zm0 35.691a8.59 8.59 0 0 1-6.863-2.785 10.922 10.922 0 0 1-2.376-7.049c0-1.646.446-9.857 9.239-9.857s9.239 8.192 9.239 9.834S353.72 358.6 344.927 358.6z"/><path d="M502.9,215.963a7.941,7.941,0,0,0-5.911-1.746c-.225.016-.469.009-.714.009a50.424,50.424,0,0,1-34.178-13.29,8,8,0,0,0-8.567-1.457,60.648,60.648,0,0,1-24.092,4.876,61.563,61.563,0,0,1-57.4-83.981,8,8,0,0,0-1.988-8.753,42.238,42.238,0,0,1-13.5-31.168,42.879,42.879,0,0,1,4.35-18.83,8,8,0,0,0-5.376-11.275,195.86,195.86,0,0,0-148.691,25c-1.939-.056-3.889-.094-5.832-.094C93.066,75.256,5.256,163.066,5.256,271S93.066,466.744,201,466.744a195.053,195.053,0,0,0,104.312-30.089c1.89.054,3.785.089,5.688.089,107.934,0,195.744-87.81,195.744-195.744,0-6.363-.319-12.952-.948-19.583A7.98,7.98,0,0,0,502.9,215.963ZM201,450.744c-99.111,0-179.744-80.633-179.744-179.744,0-93.427,71.654-170.422,162.89-178.947A195.375,195.375,0,0,0,115.256,241c0,96.418,70.076,176.769,161.97,192.819A179.344,179.344,0,0,1,201,450.744Zm110-30c-99.111,0-179.744-80.633-179.744-179.744S211.889,61.256,311,61.256a180.815,180.815,0,0,1,31.871,2.811A58.829,58.829,0,0,0,355.393,119.5a77.69,77.69,0,0,0,99.758,96.517,66.319,66.319,0,0,0,35.26,13.954c.221,3.734.333,7.424.333,11.031C490.744,340.111,410.111,420.744,311,420.744Z"/></svg>