<svg xmlns="http://www.w3.org/2000/svg" viewBox="0 0 48 48"><g data-name="Drone Delivery"><path fill="#424242" d="M15 1H9A1 1 0 0 0 7 1H1A1 1 0 0 0 1 3H7V5A1 1 0 0 0 9 5V3h6A1 1 0 0 0 15 1zM33 1h6a1 1 0 0 1 2 0h6a1 1 0 0 1 0 2H41V5a1 1 0 0 1-2 0V3H33A1 1 0 0 1 33 1z"/><polygon fill="#42a5f5" points="29 31 24 30 19 31 19 25 29 25 29 31"/><path fill="#424242" d="M41,24H38V21c0-.66-.29-.72-3-2.72a7.43,7.43,0,0,1-1.3,1.52L36,21.5V24H12V21.5l2.26-1.7A7.24,7.24,0,0,1,13,18.28L10.4,20.2c-.53.4-.4.68-.4,3.8H7a1,1,0,0,0-1,1V47a1,1,0,0,0,1,1H41a1,1,0,0,0,1-1V25A1,1,0,0,0,41,24ZM40,46H8V44H40Zm0-4H8V26H40Z"/><path fill="#42a5f5" d="M45,9H44V7a2,2,0,0,0-2-2H38a2,2,0,0,0-2,2V9H32L30.56,6.11A2,2,0,0,0,28.77,5H19.23a2,2,0,0,0-1.79,1.11L16,9H12V7a2,2,0,0,0-2-2H6A2,2,0,0,0,4,7V9H3a1,1,0,0,0-1,1v2a3,3,0,0,0,3,3h8c1.95,2.6,2.58,4,4.5,4h13a3,3,0,0,0,2.4-1.2L35,15h8a3,3,0,0,0,3-3V10A1,1,0,0,0,45,9ZM10,9H6V7h4Zm10,8a1,1,0,0,1,0-2A1,1,0,0,1,20,17Zm4,0a1,1,0,0,1,0-2A1,1,0,0,1,24,17Zm0-4a3,3,0,1,1,3-3A3,3,0,0,1,24,13Zm4,4a1,1,0,0,1,0-2A1,1,0,0,1,28,17ZM42,9H38V7h4Z"/><path fill="#424242" d="M24,9a1,1,0,0,0,0,2A1,1,0,0,0,24,9Z"/><path fill="#42a5f5" d="M19,40H11a1,1,0,0,1,0-2h8A1,1,0,0,1,19,40Z"/></g></svg>