<svg xmlns="http://www.w3.org/2000/svg" width="32" height="32" viewBox="0 0 32 32"><path style="line-height:normal;text-indent:0;text-align:start;text-decoration-line:none;text-decoration-style:solid;text-decoration-color:#000;text-transform:none;block-progression:tb;white-space:normal;isolation:auto;mix-blend-mode:normal;solid-color:#000;solid-opacity:1" d="M 14 1 A 0.50004988 0.50004988 0 0 0 13.5 1.5 L 13.5 2.2929688 C 13.234214 2.3769687 12.978578 2.482375 12.730469 2.609375 L 12.171875 2.0507812 A 0.50004988 0.50004988 0 0 0 11.464844 2.0507812 L 10.050781 3.4648438 A 0.50004988 0.50004988 0 0 0 10.050781 4.171875 L 10.609375 4.7304688 C 10.481711 4.9780687 10.375736 5.2347 10.291016 5.5 L 9.5 5.5 A 0.50004988 0.50004988 0 0 0 9 6 L 9 8 A 0.50004988 0.50004988 0 0 0 9.5 8.5 L 10.291016 8.5 C 10.375046 8.7663 10.480187 9.0229844 10.607422 9.2714844 L 10.050781 9.828125 A 0.50004988 0.50004988 0 0 0 10.050781 10.535156 L 11.464844 11.949219 A 0.50004988 0.50004988 0 0 0 12.171875 11.949219 L 12.730469 11.390625 C 12.978557 11.518525 13.234072 11.626137 13.5 11.710938 L 13.5 12.5 A 0.50004988 0.50004988 0 0 0 14 13 L 16 13 A 0.50004988 0.50004988 0 0 0 16.5 12.5 L 16.5 11.708984 C 16.766363 11.624984 17.022881 11.519978 17.271484 11.392578 L 17.828125 11.949219 A 0.50004988 0.50004988 0 0 0 18.535156 11.949219 L 19.949219 10.535156 A 0.50004988 0.50004988 0 0 0 19.949219 9.828125 L 19.392578 9.2714844 C 19.520481 9.0233844 19.626169 8.766 19.710938 8.5 L 20.5 8.5 A 0.50004988 0.50004988 0 0 0 21 8 L 21 6 A 0.50004988 0.50004988 0 0 0 20.5 5.5 L 19.708984 5.5 C 19.624854 5.2338 19.519904 4.9770156 19.392578 4.7285156 L 19.949219 4.171875 A 0.50004988 0.50004988 0 0 0 19.949219 3.4648438 L 18.535156 2.0507812 A 0.50004988 0.50004988 0 0 0 17.828125 2.0507812 L 17.269531 2.609375 C 17.021647 2.481675 16.765689 2.3758156 16.5 2.2910156 L 16.5 1.5 A 0.50004988 0.50004988 0 0 0 16 1 L 14 1 z M 14.5 2 L 15.5 2 L 15.5 2.6171875 A 0.50004988 0.50004988 0 0 0 15.888672 3.1054688 C 16.327149 3.2054688 16.74606 3.3780875 17.126953 3.6171875 A 0.50004988 0.50004988 0 0 0 17.746094 3.546875 L 18.181641 3.1113281 L 18.888672 3.8183594 L 18.455078 4.2519531 A 0.50004988 0.50004988 0 0 0 18.384766 4.8710938 C 18.622816 5.2527937 18.793917 5.6724281 18.892578 6.1113281 A 0.50004988 0.50004988 0 0 0 19.380859 6.5 L 20 6.5 L 20 7.5 L 19.382812 7.5 A 0.50004988 0.50004988 0 0 0 18.894531 7.890625 C 18.794611 8.329025 18.621903 8.7460531 18.382812 9.1269531 A 0.50004988 0.50004988 0 0 0 18.453125 9.7460938 L 18.888672 10.181641 L 18.181641 10.888672 L 17.748047 10.455078 A 0.50004988 0.50004988 0 0 0 17.130859 10.384766 C 16.749205 10.622866 16.329486 10.795831 15.890625 10.894531 A 0.50004988 0.50004988 0 0 0 15.5 11.380859 L 15.5 12 L 14.5 12 L 14.5 11.382812 A 0.50004988 0.50004988 0 0 0 14.111328 10.896484 C 13.672851 10.796484 13.25394 10.623866 12.873047 10.384766 A 0.50004988 0.50004988 0 0 0 12.253906 10.451172 L 11.818359 10.886719 L 11.111328 10.179688 L 11.544922 9.7460938 A 0.50004988 0.50004988 0 0 0 11.615234 9.1289062 C 11.377184 8.7472063 11.206083 8.3274719 11.107422 7.8886719 A 0.50004988 0.50004988 0 0 0 10.619141 7.4980469 L 10 7.4980469 L 10 6.4980469 L 10.617188 6.4980469 A 0.50004988 0.50004988 0 0 0 11.105469 6.109375 C 11.205389 5.670875 11.378097 5.2539469 11.617188 4.8730469 A 0.50004988 0.50004988 0 0 0 11.546875 4.2519531 L 11.111328 3.8164062 L 11.818359 3.109375 L 12.251953 3.5429688 A 0.50004988 0.50004988 0 0 0 12.869141 3.6152344 C 13.250795 3.3772344 13.670514 3.2040687 14.109375 3.1054688 A 0.50004988 0.50004988 0 0 0 14.5 2.6191406 L 14.5 2 z M 15 3.65625 C 13.158637 3.65625 11.654315 5.1587 11.654297 7 C 11.654315 8.8414 13.158637 10.345703 15 10.345703 C 16.841363 10.345703 18.345685 8.8414 18.345703 7 C 18.345685 5.1587 16.841363 3.65625 15 3.65625 z M 15 4.65625 C 16.300926 4.65625 17.34569 5.6991 17.345703 7 C 17.34569 8.301 16.300926 9.3457031 15 9.3457031 C 13.699074 9.3457031 12.65431 8.301 12.654297 7 C 12.65431 5.6991 13.699074 4.65625 15 4.65625 z M 23.818359 11 A 0.50004991 0.50004991 0 0 0 23.318359 11.5 L 23.318359 12.496094 C 22.963186 12.603694 22.621224 12.742916 22.292969 12.916016 L 21.59375 12.216797 A 0.50004991 0.50004991 0 0 0 20.886719 12.216797 L 19.214844 13.886719 A 0.50004991 0.50004991 0 0 0 19.214844 14.59375 L 19.917969 15.296875 C 19.744273 15.624275 19.602553 15.963959 19.494141 16.318359 L 18.5 16.318359 A 0.50004991 0.50004991 0 0 0 18 16.818359 L 18 19.183594 A 0.50004991 0.50004991 0 0 0 18.5 19.683594 L 19.494141 19.683594 C 19.601547 20.038194 19.741325 20.379231 19.914062 20.707031 L 19.214844 21.408203 A 0.50004991 0.50004991 0 0 0 19.214844 22.115234 L 20.886719 23.785156 A 0.50004991 0.50004991 0 0 0 21.59375 23.785156 L 22.294922 23.083984 C 22.622626 23.257884 22.963587 23.399412 23.318359 23.507812 L 23.318359 24.5 A 0.50004991 0.50004991 0 0 0 23.818359 25 L 26.181641 25 A 0.50004991 0.50004991 0 0 0 26.681641 24.5 L 26.681641 23.505859 C 27.036814 23.398259 27.378776 23.259038 27.707031 23.085938 L 28.40625 23.785156 A 0.50004991 0.50004991 0 0 0 29.113281 23.785156 L 30.785156 22.115234 A 0.50004991 0.50004991 0 0 0 30.785156 21.408203 L 30.082031 20.705078 C 30.255589 20.378078 30.397461 20.037594 30.505859 19.683594 L 31.5 19.683594 A 0.50004991 0.50004991 0 0 0 32 19.183594 L 32 16.818359 A 0.50004991 0.50004991 0 0 0 31.5 16.318359 L 30.505859 16.318359 C 30.398452 15.963759 30.258675 15.622722 30.085938 15.294922 L 30.785156 14.59375 A 0.50004991 0.50004991 0 0 0 30.785156 13.886719 L 29.113281 12.216797 A 0.50004991 0.50004991 0 0 0 28.40625 12.216797 L 27.705078 12.917969 C 27.377376 12.744069 27.036415 12.602641 26.681641 12.494141 L 26.681641 11.5 A 0.50004991 0.50004991 0 0 0 26.181641 11 L 23.818359 11 z M 24.318359 12 L 25.681641 12 L 25.681641 12.820312 A 0.50004991 0.50004991 0 0 0 26.070312 13.308594 C 26.598481 13.428994 27.103699 13.637781 27.5625 13.925781 A 0.50004991 0.50004991 0 0 0 28.181641 13.855469 L 28.759766 13.277344 L 29.724609 14.240234 L 29.148438 14.818359 A 0.50004991 0.50004991 0 0 0 29.076172 15.435547 C 29.36292 15.895247 29.570616 16.401088 29.689453 16.929688 A 0.50004991 0.50004991 0 0 0 30.177734 17.318359 L 31 17.318359 L 31 18.683594 L 30.179688 18.683594 A 0.50004991 0.50004991 0 0 0 29.691406 19.072266 C 29.571052 19.600466 29.364167 20.1037 29.076172 20.5625 A 0.50004991 0.50004991 0 0 0 29.144531 21.181641 L 29.724609 21.761719 L 28.759766 22.724609 L 28.183594 22.148438 A 0.50004991 0.50004991 0 0 0 27.564453 22.078125 C 27.104736 22.364825 26.600896 22.572606 26.072266 22.691406 A 0.50004991 0.50004991 0 0 0 25.681641 23.177734 L 25.681641 24 L 24.318359 24 L 24.318359 23.179688 A 0.50004991 0.50004991 0 0 0 23.929688 22.693359 C 23.401526 22.572959 22.896307 22.364172 22.4375 22.076172 A 0.50004991 0.50004991 0 0 0 21.818359 22.146484 L 21.240234 22.724609 L 20.275391 21.761719 L 20.851562 21.183594 A 0.50004991 0.50004991 0 0 0 20.923828 20.566406 C 20.63708 20.106706 20.429384 19.600866 20.310547 19.072266 A 0.50004991 0.50004991 0 0 0 19.822266 18.683594 L 19 18.683594 L 19 17.318359 L 19.820312 17.318359 A 0.50004991 0.50004991 0 0 0 20.308594 16.929688 C 20.428948 16.401488 20.635833 15.898253 20.923828 15.439453 A 0.50004991 0.50004991 0 0 0 20.855469 14.820312 L 20.275391 14.240234 L 21.240234 13.277344 L 21.816406 13.853516 A 0.50004991 0.50004991 0 0 0 22.435547 13.923828 C 22.895264 13.637028 23.399104 13.429347 23.927734 13.310547 A 0.50004991 0.50004991 0 0 0 24.318359 12.822266 L 24.318359 12 z M 7.4550781 14 A 0.50004991 0.50004991 0 0 0 6.9550781 14.5 L 6.9550781 15.902344 C 6.4213761 16.054744 5.9086314 16.26455 5.421875 16.53125 L 4.4355469 15.544922 A 0.50004991 0.50004991 0 0 0 3.7285156 15.544922 L 1.5449219 17.730469 A 0.50004991 0.50004991 0 0 0 1.5449219 18.4375 L 2.5332031 19.425781 C 2.2653871 19.911581 2.052163 20.422078 1.8984375 20.955078 L 0.5 20.955078 A 0.50004991 0.50004991 0 0 0 0 21.455078 L 0 24.546875 A 0.50004991 0.50004991 0 0 0 0.5 25.046875 L 1.9023438 25.046875 C 2.054526 25.579875 2.2630651 26.091825 2.5292969 26.578125 L 1.5449219 27.564453 A 0.50004991 0.50004991 0 0 0 1.5449219 28.271484 L 3.7285156 30.457031 A 0.50004991 0.50004991 0 0 0 4.4355469 30.457031 L 5.4257812 29.46875 C 5.9114107 29.73635 6.4222893 29.947862 6.9550781 30.101562 L 6.9550781 31.5 A 0.50004991 0.50004991 0 0 0 7.4550781 32 L 10.544922 32 A 0.50004991 0.50004991 0 0 0 11.044922 31.5 L 11.044922 30.099609 C 11.578621 29.947309 12.091366 29.737403 12.578125 29.470703 L 13.564453 30.457031 A 0.50004991 0.50004991 0 0 0 14.271484 30.457031 L 16.455078 28.271484 A 0.50004991 0.50004991 0 0 0 16.455078 27.564453 L 15.466797 26.576172 C 15.734613 26.090372 15.947837 25.579875 16.101562 25.046875 L 17.5 25.046875 A 0.50004991 0.50004991 0 0 0 18 24.546875 L 18 21.455078 A 0.50004991 0.50004991 0 0 0 17.5 20.955078 L 16.097656 20.955078 C 15.945474 20.422078 15.736935 19.910028 15.470703 19.423828 L 16.455078 18.4375 A 0.50004991 0.50004991 0 0 0 16.455078 17.730469 L 14.271484 15.544922 A 0.50004991 0.50004991 0 0 0 13.564453 15.544922 L 12.574219 16.533203 C 12.088589 16.265603 11.577711 16.054091 11.044922 15.900391 L 11.044922 14.5 A 0.50004991 0.50004991 0 0 0 10.544922 14 L 7.4550781 14 z M 25 14.138672 C 22.872947 14.138672 21.138652 15.873 21.138672 18 C 21.138652 20.1271 22.872947 21.863281 25 21.863281 C 27.127053 21.863281 28.861348 20.1271 28.861328 18 C 28.861348 15.873 27.127053 14.138672 25 14.138672 z M 7.9550781 15 L 10.044922 15 L 10.044922 16.226562 A 0.50004991 0.50004991 0 0 0 10.433594 16.714844 C 11.141136 16.876044 11.81702 17.155216 12.431641 17.541016 A 0.50004991 0.50004991 0 0 0 13.050781 17.470703 L 13.917969 16.605469 L 15.394531 18.083984 L 14.533203 18.947266 A 0.50004991 0.50004991 0 0 0 14.460938 19.564453 C 14.845069 20.180253 15.124006 20.856253 15.283203 21.564453 A 0.50004991 0.50004991 0 0 0 15.769531 21.955078 L 17 21.955078 L 17 24.046875 L 15.773438 24.046875 A 0.50004991 0.50004991 0 0 0 15.285156 24.435547 C 15.123927 25.143047 14.844789 25.818994 14.458984 26.433594 A 0.50004991 0.50004991 0 0 0 14.529297 27.052734 L 15.394531 27.917969 L 13.917969 29.396484 L 13.054688 28.533203 A 0.50004991 0.50004991 0 0 0 12.435547 28.462891 C 11.819693 28.846991 11.143703 29.124003 10.435547 29.283203 A 0.50004991 0.50004991 0 0 0 10.044922 29.771484 L 10.044922 31 L 7.9550781 31 L 7.9550781 29.773438 A 0.50004991 0.50004991 0 0 0 7.5664062 29.287109 C 6.8588645 29.125909 6.1829804 28.846738 5.5683594 28.460938 A 0.50004991 0.50004991 0 0 0 4.9492188 28.529297 L 4.0820312 29.396484 L 2.6054688 27.917969 L 3.4667969 27.054688 A 0.50004991 0.50004991 0 0 0 3.5390625 26.4375 C 3.1549299 25.8217 2.8759942 25.1457 2.7167969 24.4375 A 0.50004991 0.50004991 0 0 0 2.2304688 24.046875 L 1 24.046875 L 1 21.955078 L 2.2265625 21.955078 A 0.50004991 0.50004991 0 0 0 2.7148438 21.566406 C 2.8760728 20.858906 3.1552111 20.182959 3.5410156 19.568359 A 0.50004991 0.50004991 0 0 0 3.4707031 18.949219 L 2.6054688 18.083984 L 4.0820312 16.605469 L 4.9453125 17.46875 A 0.50004991 0.50004991 0 0 0 5.5644531 17.539062 C 6.1803006 17.154863 6.8562909 16.87795 7.5644531 16.71875 A 0.50004991 0.50004991 0 0 0 7.9550781 16.230469 L 7.9550781 15 z M 25 15.138672 C 26.58661 15.138672 27.861343 16.4134 27.861328 18 C 27.861343 19.5866 26.58661 20.863281 25 20.863281 C 23.41339 20.863281 22.138657 19.5866 22.138672 18 C 22.138657 16.4134 23.41339 15.138672 25 15.138672 z M 9 18.103516 C 6.3016109 18.103516 4.1034851 20.3016 4.1035156 23 C 4.1035464 25.6984 6.301654 27.896484 9 27.896484 C 11.698346 27.896484 13.896454 25.6984 13.896484 23 C 13.896515 20.3016 11.698389 18.103516 9 18.103516 z M 9 19.103516 C 11.157945 19.103516 12.896509 20.8421 12.896484 23 C 12.89646 25.1579 11.15791 26.896484 9 26.896484 C 6.84209 26.896484 5.1035403 25.1579 5.1035156 23 C 5.1034912 20.8421 6.842055 19.103516 9 19.103516 z " color="#000" enable-background="accumulate" font-family="sans-serif" font-weight="400" overflow="visible"/></svg>